ffmpeg started on 2016-11-26 at 23:29:23
Report written to "Output/NVENCh264/results/ffmpeg/old_town_cross_2160p50ll15000k.log"
Command line:
Tools/ffmpeg/ffmpeg -benchmark -y -i Input/y4m/old_town_cross_2160p50.y4m -c:v h264_nvenc -preset ll -b:v 15000k -an Output/NVENCh264/encoded/old_town_cross_2160p50ll15000k.mkv
ffmpeg version N-82227-gdb23fde Copyright (c) 2000-2016 the FFmpeg developers
  built with gcc 5.4.0 (Ubuntu 5.4.0-6ubuntu1~16.04.2) 20160609
  configuration: --prefix=/home/jaroslav/ffmpeg_build --pkg-config-flags=--static --extra-cflags=-I/home/jaroslav/ffmpeg_build/include --extra-ldflags=-L/home/jaroslav/ffmpeg_build/lib --bindir=/home/jaroslav/bin --enable-gpl --enable-libass --enable-libfdk-aac --enable-libfreetype --enable-libmp3lame --enable-libopus --enable-libtheora --enable-libvorbis --enable-libvpx --enable-libx264 --enable-libx265 --enable-nvenc --enable-libmfx --enable-libxvid --enable-libgsm --enable-libopencore-amrnb --enable-version3 --enable-nonfree
  libavutil      55. 35.100 / 55. 35.100
  libavcodec     57. 66.101 / 57. 66.101
  libavformat    57. 57.100 / 57. 57.100
  libavdevice    57.  2.100 / 57.  2.100
  libavfilter     6. 66.100 /  6. 66.100
  libswscale      4.  3.100 /  4.  3.100
  libswresample   2.  4.100 /  2.  4.100
  libpostproc    54.  2.100 / 54.  2.100
Input #0, yuv4mpegpipe, from 'Input/y4m/old_town_cross_2160p50.y4m':
  Duration: 00:00:10.00, start: 0.000000, bitrate: 4976642 kb/s
    Stream #0:0: Video: rawvideo (I420 / 0x30323449), yuv420p(progressive), 3840x2160, SAR 1:1 DAR 16:9, 50 fps, 50 tbr, 50 tbn, 50 tbc
[h264_nvenc @ 0x2823120] The variable bitrate rate-control requires the 'qmin' and/or 'qmax' option set.
Output #0, matroska, to 'Output/NVENCh264/encoded/old_town_cross_2160p50ll15000k.mkv':
  Metadata:
    encoder         : Lavf57.57.100
    Stream #0:0: Video: h264 (h264_nvenc) (Main) (H264 / 0x34363248), yuv420p, 3840x2160 [SAR 1:1 DAR 16:9], q=-1--1, 15000 kb/s, 50 fps, 1k tbn, 50 tbc
    Metadata:
      encoder         : Lavc57.66.101 h264_nvenc
    Side data:
      cpb: bitrate max/min/avg: 0/0/15000000 buffer size: 30000000 vbv_delay: -1
Stream mapping:
  Stream #0:0 -> #0:0 (rawvideo (native) -> h264 (h264_nvenc))
Press [q] to stop, [?] for help
frame=   20 fps=0.0 q=0.0 size=       0kB time=00:00:00.00 bitrate=N/A speed=   0x    frame=   31 fps= 29 q=36.0 size=       1kB time=00:00:00.00 bitrate=5984.0kbits/s speed=0.000928x    frame=   49 fps= 31 q=31.0 size=       1kB time=00:00:00.36 bitrate=  16.6kbits/s speed=0.227x    frame=   67 fps= 32 q=31.0 size=       1kB time=00:00:00.72 bitrate=   8.3kbits/s speed=0.343x    frame=   78 fps= 29 q=32.0 size=       1kB time=00:00:00.94 bitrate=   6.4kbits/s speed=0.349x    frame=   87 fps= 27 q=32.0 size=       1kB time=00:00:01.12 bitrate=   5.3kbits/s speed=0.349x    frame=  105 fps= 28 q=32.0 size=       1kB time=00:00:01.48 bitrate=   4.0kbits/s speed=0.397x    frame=  123 fps= 29 q=31.0 size=       1kB time=00:00:01.84 bitrate=   3.3kbits/s speed=0.434x    frame=  141 fps= 30 q=31.0 size=       1kB time=00:00:02.20 bitrate=   2.7kbits/s speed=0.463x    frame=  159 fps= 30 q=31.0 size=       1kB time=00:00:02.56 bitrate=   2.3kbits/s speed=0.486x    frame=  176 fps= 30 q=32.0 size=    5126kB time=00:00:02.90 bitrate=14474.5kbits/s speed=0.503x    frame=  194 fps= 31 q=32.0 size=    5126kB time=00:00:03.26 bitrate=12876.6kbits/s speed=0.518x    frame=  212 fps= 31 q=32.0 size=    5126kB time=00:00:03.62 bitrate=11596.4kbits/s speed=0.532x    frame=  225 fps= 30 q=32.0 size=    5126kB time=00:00:03.88 bitrate=10819.5kbits/s speed=0.521x    frame=  243 fps= 30 q=32.0 size=    5126kB time=00:00:04.24 bitrate=9901.1kbits/s speed=0.532x    frame=  261 fps= 31 q=32.0 size=    5126kB time=00:00:04.60 bitrate=9126.4kbits/s speed=0.542x    frame=  279 fps= 31 q=31.0 size=    5126kB time=00:00:04.96 bitrate=8464.1kbits/s speed=0.551x    frame=  297 fps= 31 q=34.0 size=    9056kB time=00:00:05.32 bitrate=13941.7kbits/s speed=0.558x    frame=  315 fps= 31 q=31.0 size=    9056kB time=00:00:05.68 bitrate=13058.3kbits/s speed=0.566x    frame=  333 fps= 32 q=30.0 size=    9056kB time=00:00:06.04 bitrate=12280.1kbits/s speed=0.572x    frame=  351 fps= 32 q=31.0 size=    9056kB time=00:00:06.40 bitrate=11589.4kbits/s speed=0.578x    frame=  369 fps= 32 q=32.0 size=    9056kB time=00:00:06.76 bitrate=10972.3kbits/s speed=0.584x    frame=  387 fps= 32 q=32.0 size=    9056kB time=00:00:07.12 bitrate=10417.6kbits/s speed=0.588x    frame=  405 fps= 32 q=32.0 size=    9056kB time=00:00:07.48 bitrate=9916.3kbits/s speed=0.593x    frame=  423 fps= 32 q=33.0 size=   14190kB time=00:00:07.84 bitrate=14825.3kbits/s speed=0.596x    frame=  441 fps= 32 q=31.0 size=   14190kB time=00:00:08.20 bitrate=14174.5kbits/s speed= 0.6x    frame=  448 fps= 32 q=31.0 size=   14190kB time=00:00:08.34 bitrate=13936.6kbits/s speed=0.589x    frame=  458 fps= 31 q=32.0 size=   14190kB time=00:00:08.54 bitrate=13610.3kbits/s speed=0.578x    frame=  469 fps= 30 q=32.0 size=   14190kB time=00:00:08.76 bitrate=13268.5kbits/s speed=0.569x    frame=  476 fps= 30 q=32.0 size=   14190kB time=00:00:08.90 bitrate=13059.8kbits/s speed=0.559x    frame=  494 fps= 30 q=32.0 size=   14190kB time=00:00:09.26 bitrate=12552.1kbits/s speed=0.564x    frame=  500 fps= 30 q=32.0 Lsize=   18214kB time=00:00:09.98 bitrate=14948.9kbits/s speed=0.599x    
video:18209kB audio:0kB subtitle:0kB other streams:0kB global headers:0kB muxing overhead: 0.026092%
bench: utime=1.232s
bench: maxrss=1421244kB
